####
#
# OBJ File Generated by Meshlab
#
####
# Object body-collision.obj
#
# Vertices: 166
# Faces: 324
#
####
vn -0.1333631 -3.1359205 3.0565886
v -0.2824242 -0.3949950 0.2216330
vn -0.1333632 -3.1359301 -3.0565886
v -0.2824242 -0.3949950 0.0037916
vn 0.0000005 -3.1416006 3.1415925
v -0.2812656 -0.3949950 0.2216330
vn 0.0000004 -3.1415930 -3.1415925
v -0.2812657 -0.3949950 0.0037916
vn 0.0000013 -3.1415923 3.1415925
v -0.1651559 -0.3949950 0.2216330
vn 0.0000010 -3.1415932 -3.1415925
v -0.1651559 -0.3949950 0.0037916
vn 0.0000014 -3.1415920 3.1415925
v -0.0868645 -0.3949949 0.2216330
vn 0.0000013 -3.1415930 -3.1415925
v -0.0859561 -0.3949949 0.0037916
vn 0.0000008 -3.1415920 3.1415930
v -0.0251411 -0.3949949 0.2216330
vn 0.0000007 -3.1415932 -3.1415930
v -0.0229090 -0.3949949 0.0037916
vn 0.0000012 -3.1415920 3.1415920
v 0.0251414 -0.3949949 0.2216330
vn 0.0000011 -3.1415927 -3.1415920
v 0.0229093 -0.3949949 0.0037916
vn 0.0000016 -3.1415915 3.1415930
v 0.0652192 -0.3949949 0.2216330
vn 0.0000015 -3.1415930 -3.1415930
v 0.0674513 -0.3949949 0.0037916
vn 0.0000011 -3.1415918 3.1415925
v 0.1651562 -0.3949949 0.2216330
vn 0.0000009 -3.1415930 -3.1415925
v 0.1651562 -0.3949949 0.0037916
vn 0.0000005 -3.1415923 3.1415930
v 0.2812659 -0.3949948 0.2216330
vn 0.0000004 -3.1415792 -3.1415930
v 0.2812659 -0.3949948 0.0037916
vn 0.1333631 -3.1359067 3.0565886
v 0.2824244 -0.3949948 0.2216330
vn 0.1333631 -3.1359215 -3.0565889
v 0.2824244 -0.3949948 0.0037916
vn 3.0918875 -0.5457039 -3.0717144
v 0.4637856 -0.0264043 0.0037915
vn 3.0918875 -0.5457039 3.0717144
v 0.4637856 -0.0264043 0.2216330
vn 3.0728140 -0.6537738 -3.1415939
v 0.4589783 -0.0489992 0.0037915
vn 3.0728133 -0.6537736 3.1415939
v 0.4589783 -0.0489992 0.2216330
vn 3.0728142 -0.6537712 -3.1415930
v 0.4224665 -0.2206095 0.0037915
vn 3.0728137 -0.6537734 3.1415915
v 0.4230010 -0.2180971 0.2216330
vn 3.0728140 -0.6537727 -3.1415911
v 0.4192193 -0.2358719 0.0037915
vn 3.0728130 -0.6537728 3.1415942
v 0.4180773 -0.2412393 0.2216330
vn 3.0728137 -0.6537747 -3.1415925
v 0.4127275 -0.2663839 0.0037915
vn 3.0728137 -0.6537722 3.1415911
v 0.4121929 -0.2688964 0.2216330
vn 3.0394444 -0.7832634 -3.0564394
v 0.4067666 -0.2944009 0.0037915
vn 3.0394442 -0.7832642 3.0564373
v 0.4067666 -0.2944009 0.2216330
vn 3.1262774 -0.2188161 -3.0018353
v 0.4662538 -0.0088588 0.0037915
vn 3.1262760 -0.2188161 3.0018353
v 0.4662538 -0.0088588 0.2216330
vn 3.1262763 0.2188187 -3.0018339
v 0.4662538 0.0088591 0.0037915
vn 3.1262770 0.2188163 3.0018353
v 0.4662538 0.0088591 0.2216330
vn 3.0918875 0.5457065 -3.0717161
v 0.4637856 0.0264046 0.0037915
vn 3.0918865 0.5457058 3.0717127
v 0.4637856 0.0264046 0.2216330
vn 3.0728130 0.6537766 3.1415942
v 0.4589782 0.0489995 0.2216330
vn 3.0728137 0.6537748 -3.1415932
v 0.4589782 0.0489995 0.0037915
vn 3.0728135 0.6537740 3.1415927
v 0.4352892 0.1603405 0.2216330
vn 3.0728137 0.6537733 -3.1415930
v 0.4357637 0.1581106 0.0037915
vn 3.0728135 0.6537730 3.1415935
v 0.4220099 0.2227548 0.2216330
vn 3.0728135 0.6537741 -3.1415913
v 0.4208680 0.2281222 0.0037915
vn 3.0728135 0.6537750 3.1415913
v 0.4121928 0.2688966 0.2216330
vn 3.0728130 0.6537758 -3.1415932
v 0.4127273 0.2663842 0.0037915
vn 3.0394437 0.7832654 3.0564387
v 0.4067664 0.2944011 0.2216330
vn 3.0394440 0.7832646 -3.0564380
v 0.4067664 0.2944011 0.0037915
vn 0.1333631 3.1359208 3.0565886
v 0.2824242 0.3949950 0.2216330
vn 0.1333632 3.1359074 -3.0565886
v 0.2824242 0.3949950 0.0037916
vn -0.0000003 3.1415782 3.1415925
v 0.2812656 0.3949950 0.2216330
vn -0.0000004 3.1415930 -3.1415925
v 0.2812656 0.3949950 0.0037916
vn -0.0000006 3.1415918 3.1415925
v 0.1651559 0.3949950 0.2216330
vn -0.0000009 3.1415932 -3.1415925
v 0.1651559 0.3949950 0.0037916
vn -0.0000016 3.1415920 3.1415923
v 0.0652190 0.3949949 0.2216330
vn -0.0000015 3.1415927 -3.1415923
v 0.0674511 0.3949949 0.0037916
vn -0.0000012 3.1415915 3.1415935
v 0.0251411 0.3949949 0.2216330
vn -0.0000010 3.1415932 -3.1415935
v 0.0229090 0.3949949 0.0037916
vn -0.0000008 3.1415920 3.1415920
v -0.0251414 0.3949949 0.2216330
vn -0.0000007 3.1415930 -3.1415920
v -0.0229093 0.3949949 0.0037916
vn -0.0000014 3.1415920 3.1415930
v -0.0868647 0.3949949 0.2216330
vn -0.0000013 3.1415930 -3.1415927
v -0.0859563 0.3949949 0.0037916
vn -0.0000007 3.1415925 3.1415930
v -0.1651562 0.3949949 0.2216330
vn -0.0000010 3.1415930 -3.1415930
v -0.1651562 0.3949949 0.0037916
vn -0.0000003 3.1415920 3.1415930
v -0.2812659 0.3949948 0.2216330
vn -0.0000004 3.1416016 -3.1415930
v -0.2812659 0.3949948 0.0037916
vn -0.1333631 3.1359289 3.0565886
v -0.2824244 0.3949948 0.2216330
vn -0.1333632 3.1359217 -3.0565886
v -0.2824244 0.3949948 0.0037916
vn 1.9687899 2.4335613 2.9714584
v 0.3624234 0.3666929 0.2216330
vn 0.0000002 0.0000000 6.2831101
v -0.0000000 -0.0000000 0.2216329
vn 2.3524580 2.0650051 2.9713988
v 0.3779982 0.3517325 0.2216330
vn -0.0000004 -0.0000000 -6.2831779
v -0.0000000 -0.0000000 0.0037915
vn -3.0728128 -0.6537725 3.1415944
v -0.4180771 -0.2412395 0.2216330
vn -3.0728130 -0.6537744 3.1415923
v -0.4230009 -0.2180973 0.2216330
vn 1.5284017 -2.7317364 2.9715090
v 0.3445380 -0.3788020 0.2216330
vn 1.0440226 -2.9510083 2.9715490
v 0.3248580 -0.3877104 0.2216330
vn 2.9069939 1.1608683 -2.9713037
v 0.4004946 0.3150569 0.0037915
vn 2.9069941 1.1608666 2.9713049
v 0.4004946 0.3150569 0.2216330
vn 2.6682611 1.6366582 -2.9713504
v 0.3908119 0.3343531 0.0037915
vn 2.6682615 1.6366564 2.9713488
v 0.3908119 0.3343531 0.2216330
vn 2.3524590 2.0650041 -2.9714003
v 0.3779981 0.3517325 0.0037915
vn 1.9687914 2.4335604 -2.9714575
v 0.3624234 0.3666929 0.0037915
vn 1.5283989 2.7317374 -2.9715099
v 0.3445377 0.3788022 0.0037915
vn 1.5284008 2.7317371 2.9715099
v 0.3445377 0.3788022 0.2216330
vn 1.0440210 2.9510114 -2.9715493
v 0.3248577 0.3877105 0.0037916
vn 1.0440223 2.9510078 2.9715493
v 0.3248577 0.3877105 0.2216330
vn 0.5296214 3.0851185 -2.9715755
v 0.3039519 0.3931606 0.0037916
vn 0.5296213 3.0851178 2.9715755
v 0.3039519 0.3931606 0.2216330
vn 2.9069953 -1.1608614 -2.9713016
v 0.4004948 -0.3150566 0.0037915
vn 2.6682618 -1.6366564 2.9713490
v 0.3908121 -0.3343529 0.2216330
vn 2.6682615 -1.6366565 -2.9713490
v 0.3908121 -0.3343529 0.0037915
vn 2.3524613 -2.0650020 2.9714017
v 0.3779984 -0.3517323 0.2216330
vn 2.3524613 -2.0650020 -2.9714017
v 0.3779984 -0.3517323 0.0037915
vn 1.9687943 -2.4335575 2.9714563
v 0.3624237 -0.3666927 0.2216330
vn 1.9687939 -2.4335580 -2.9714556
v 0.3624237 -0.3666927 0.0037915
vn 1.5283991 -2.7317379 -2.9715099
v 0.3445379 -0.3788020 0.0037915
vn 1.0440209 -2.9510114 -2.9715495
v 0.3248580 -0.3877104 0.0037916
vn 0.5296212 -3.0851176 2.9715753
v 0.3039521 -0.3931605 0.2216330
vn 0.5296214 -3.0851188 -2.9715757
v 0.3039521 -0.3931605 0.0037916
vn 3.0060773 -0.9127479 -3.1415954
v 0.4017619 -0.3108834 0.0037915
vn 3.0060766 -0.9127539 3.1415935
v 0.4024390 -0.3086534 0.2216330
vn 2.9069946 -1.1608657 2.9713044
v 0.4004948 -0.3150566 0.2216330
vn -3.1262760 -0.2188160 3.0018353
v -0.4662538 -0.0088591 0.2216330
vn -3.1262763 0.2188161 3.0018353
v -0.4662538 0.0088588 0.2216330
vn -3.0394449 0.7832649 -3.0564382
v -0.4067666 0.2944009 0.0037916
vn -3.0728142 0.6537753 -3.1415925
v -0.4127275 0.2663839 0.0037916
vn -2.6682611 -1.6366562 2.9713490
v -0.3908119 -0.3343531 0.2216330
vn -2.9069932 -1.1608652 2.9713044
v -0.4004946 -0.3150569 0.2216330
vn -1.9687942 2.4335568 2.9714549
v -0.3624237 0.3666927 0.2216330
vn -1.5284005 2.7317371 2.9715097
v -0.3445380 0.3788020 0.2216330
vn -3.0728126 -0.6537745 3.1415930
v -0.4589783 -0.0489995 0.2216330
vn -3.0918865 0.5457017 3.0717158
v -0.4637856 0.0264043 0.2216330
vn -3.0728137 0.6537718 3.1415925
v -0.4589783 0.0489992 0.2216330
vn -2.9069958 1.1608652 -2.9713061
v -0.4004948 0.3150566 0.0037916
vn -3.0728142 -0.6537749 -3.1415930
v -0.4589783 -0.0489995 0.0037916
vn -3.0728149 -0.6537727 -3.1415937
v -0.4224663 -0.2206098 0.0037916
vn -3.0728137 -0.6537724 -3.1415913
v -0.4192191 -0.2358721 0.0037916
vn -3.0060737 -0.9127533 3.1415935
v -0.4024388 -0.3086537 0.2216330
vn -3.0394425 -0.7832673 3.0564396
v -0.4067664 -0.2944011 0.2216330
vn -2.3524621 2.0650010 2.9714031
v -0.3779984 0.3517323 0.2216330
vn -0.5296213 -3.0851181 2.9715755
v -0.3039519 -0.3931606 0.2216330
vn -1.9687939 2.4335587 -2.9714556
v -0.3624237 0.3666927 0.0037916
vn -2.3524618 2.0650024 -2.9714017
v -0.3779984 0.3517323 0.0037916
vn -1.0440223 -2.9510076 2.9715495
v -0.3248577 -0.3877105 0.2216330
vn -1.5283999 -2.7317383 2.9715109
v -0.3445377 -0.3788022 0.2216330
vn -2.3524587 -2.0650039 2.9713998
v -0.3779982 -0.3517325 0.2216330
vn -2.6682630 1.6366550 -2.9713473
v -0.3908121 0.3343529 0.0037916
vn -3.0728135 -0.6537751 -3.1415925
v -0.4127274 -0.2663842 0.0037916
vn -3.0394435 -0.7832683 -3.0564356
v -0.4067664 -0.2944011 0.0037916
vn -2.3524597 -2.0650046 -2.9713998
v -0.3779982 -0.3517325 0.0037916
vn -1.9687917 -2.4335606 -2.9714575
v -0.3624235 -0.3666929 0.0037916
vn -3.0394433 0.7832654 3.0564389
v -0.4067666 0.2944009 0.2216330
vn -2.9069943 1.1608664 2.9713049
v -0.4004948 0.3150566 0.2216330
vn -3.0728133 0.6537726 3.1415927
v -0.4352894 0.1603403 0.2216330
vn -3.0728137 0.6537717 3.1415951
v -0.4220101 0.2227545 0.2216330
vn -2.6682615 1.6366560 2.9713492
v -0.3908121 0.3343529 0.2216330
vn -0.5296215 3.0851188 -2.9715755
v -0.3039521 0.3931605 0.0037916
vn -1.5284029 -2.7317381 -2.9715099
v -0.3445378 -0.3788022 0.0037916
vn -3.0728123 -0.6537757 3.1415894
v -0.4121928 -0.2688966 0.2216330
vn -1.0440240 2.9510057 -2.9715493
v -0.3248580 0.3877104 0.0037916
vn -1.5284029 2.7317379 -2.9715097
v -0.3445380 0.3788020 0.0037916
vn -3.0918870 -0.5457038 3.0717144
v -0.4637856 -0.0264046 0.2216330
vn -1.0440242 -2.9510062 -2.9715490
v -0.3248578 -0.3877105 0.0037916
vn -3.0918868 -0.5457038 -3.0717144
v -0.4637856 -0.0264046 0.0037916
vn -3.0918882 0.5457013 -3.0717125
v -0.4637856 0.0264043 0.0037916
vn -3.1262774 0.2188136 -3.0018368
v -0.4662538 0.0088588 0.0037916
vn -3.1262770 -0.2188161 -3.0018353
v -0.4662538 -0.0088591 0.0037916
vn -3.0728135 0.6537727 3.1415896
v -0.4121930 0.2688964 0.2216330
vn -3.0728140 0.6537737 -3.1415896
v -0.4208682 0.2281219 0.0037916
vn -3.0728145 0.6537712 -3.1415935
v -0.4357638 0.1581104 0.0037916
vn -3.0728140 0.6537737 -3.1415935
v -0.4589783 0.0489992 0.0037916
vn -0.5296213 3.0851178 2.9715755
v -0.3039521 0.3931605 0.2216330
vn -1.0440222 2.9510076 2.9715493
v -0.3248580 0.3877104 0.2216330
vn -3.0060740 -0.9127523 -3.1415985
v -0.4017617 -0.3108836 0.0037916
vn -2.9069967 -1.1608616 -2.9713016
v -0.4004946 -0.3150569 0.0037916
vn -2.6682622 -1.6366568 -2.9713490
v -0.3908119 -0.3343531 0.0037916
vn -1.9687903 -2.4335604 2.9714568
v -0.3624235 -0.3666929 0.2216330
vn -0.5296214 -3.0851188 -2.9715753
v -0.3039519 -0.3931606 0.0037916
vn -2.2214415 -0.0000002 1.5707963
v -0.3475891 -0.0000000 0.2755256
vn 0.0000002 -2.2214410 1.5707957
v 0.0000000 -0.3475891 0.2755255
vn 2.2214417 -0.0000002 1.5707963
v 0.3475891 0.0000000 0.2755255
vn 0.0000000 2.2214420 1.5707971
v -0.0000000 0.3475890 0.2755255
vn 2.2214415 0.0000003 -1.5707963
v 0.3475891 0.0000000 0.2156287
vn -0.0000001 2.2214410 -1.5707955
v -0.0000000 0.3475891 0.2156287
vn -2.2214413 0.0000003 -1.5707963
v -0.3475891 -0.0000000 0.2156287
vn 0.0000002 -2.2214422 -1.5707972
v 0.0000000 -0.3475890 0.2156287
# 166 vertices, 0 vertices normals

f 1//1 2//2 3//3
f 3//3 2//2 4//4
f 3//3 4//4 5//5
f 5//5 4//4 6//6
f 5//5 6//6 7//7
f 7//7 6//6 8//8
f 7//7 8//8 9//9
f 9//9 8//8 10//10
f 9//9 10//10 11//11
f 11//11 10//10 12//12
f 11//11 12//12 13//13
f 13//13 12//12 14//14
f 13//13 14//14 15//15
f 15//15 14//14 16//16
f 15//15 16//16 17//17
f 17//17 16//16 18//18
f 17//17 18//18 19//19
f 19//19 18//18 20//20
f 21//21 22//22 23//23
f 23//23 22//22 24//24
f 23//23 24//24 25//25
f 25//25 24//24 26//26
f 25//25 26//26 27//27
f 27//27 26//26 28//28
f 27//27 28//28 29//29
f 29//29 28//28 30//30
f 29//29 30//30 31//31
f 31//31 30//30 32//32
f 22//22 21//21 33//33
f 22//22 33//33 34//34
f 34//34 33//33 35//35
f 34//34 35//35 36//36
f 36//36 35//35 37//37
f 36//36 37//37 38//38
f 38//38 37//37 39//39
f 39//39 37//37 40//40
f 39//39 40//40 41//41
f 41//41 40//40 42//42
f 41//41 42//42 43//43
f 43//43 42//42 44//44
f 43//43 44//44 45//45
f 45//45 44//44 46//46
f 45//45 46//46 47//47
f 47//47 46//46 48//48
f 49//49 50//50 51//51
f 51//51 50//50 52//52
f 51//51 52//52 53//53
f 53//53 52//52 54//54
f 53//53 54//54 55//55
f 55//55 54//54 56//56
f 55//55 56//56 57//57
f 57//57 56//56 58//58
f 57//57 58//58 59//59
f 59//59 58//58 60//60
f 59//59 60//60 61//61
f 61//61 60//60 62//62
f 61//61 62//62 63//63
f 63//63 62//62 64//64
f 63//63 64//64 65//65
f 65//65 64//64 66//66
f 65//65 66//66 67//67
f 67//67 66//66 68//68
f 69//69 70//70 71//71
f 52//52 72//72 54//54
f 8//8 72//72 10//10
f 73//73 70//70 74//74
f 75//75 70//70 76//76
f 5//5 70//70 3//3
f 47//47 48//48 77//77
f 47//47 77//77 78//78
f 78//78 77//77 79//79
f 78//78 79//79 80//80
f 80//80 79//79 81//81
f 80//80 81//81 71//71
f 71//71 81//81 82//82
f 71//71 82//82 69//69
f 69//69 82//82 83//83
f 69//69 83//83 84//84
f 84//84 83//83 85//85
f 84//84 85//85 86//86
f 86//86 85//85 87//87
f 86//86 87//87 88//88
f 88//88 87//87 50//50
f 88//88 50//50 49//49
f 89//89 90//90 91//91
f 91//91 90//90 92//92
f 91//91 92//92 93//93
f 93//93 92//92 94//94
f 93//93 94//94 95//95
f 95//95 94//94 75//75
f 95//95 75//75 96//96
f 96//96 75//75 76//76
f 96//96 76//76 97//97
f 97//97 76//76 98//98
f 97//97 98//98 99//99
f 99//99 98//98 19//19
f 99//99 19//19 20//20
f 31//31 32//32 100//100
f 100//100 32//32 101//101
f 100//100 101//101 89//89
f 89//89 101//101 102//102
f 89//89 102//102 90//90
f 103//103 70//70 104//104
f 45//45 70//70 43//43
f 16//16 72//72 18//18
f 105//105 72//72 106//106
f 41//41 70//70 39//39
f 18//18 72//72 20//20
f 76//76 70//70 98//98
f 107//107 70//70 108//108
f 109//109 70//70 110//110
f 74//74 70//70 111//111
f 112//112 70//70 113//113
f 62//62 72//72 64//64
f 3//3 70//70 1//1
f 88//88 70//70 86//86
f 49//49 70//70 88//88
f 91//91 72//72 89//89
f 40//40 72//72 42//42
f 27//27 72//72 25//25
f 44//44 72//72 46//46
f 96//96 72//72 95//95
f 114//114 72//72 105//105
f 81//81 72//72 82//82
f 85//85 72//72 87//87
f 32//32 70//70 101//101
f 28//28 70//70 30//30
f 79//79 72//72 81//81
f 115//115 72//72 116//116
f 116//116 72//72 117//117
f 118//118 70//70 119//119
f 2//2 72//72 4//4
f 120//120 70//70 109//109
f 11//11 70//70 9//9
f 1//1 70//70 121//121
f 9//9 70//70 7//7
f 80//80 70//70 78//78
f 47//47 70//70 45//45
f 36//36 70//70 34//34
f 122//122 72//72 123//123
f 38//38 70//70 36//36
f 87//87 72//72 50//50
f 124//124 70//70 125//125
f 126//126 70//70 107//107
f 86//86 70//70 84//84
f 19//19 70//70 17//17
f 123//123 72//72 127//127
f 128//128 72//72 129//129
f 60//60 72//72 62//62
f 130//130 72//72 131//131
f 117//117 72//72 128//128
f 132//132 70//70 133//133
f 134//134 70//70 135//135
f 99//99 72//72 97//97
f 133//133 70//70 136//136
f 42//42 72//72 44//44
f 100//100 72//72 31//31
f 136//136 70//70 120//120
f 24//24 70//70 26//26
f 34//34 70//70 22//22
f 43//43 70//70 41//41
f 68//68 72//72 137//137
f 94//94 70//70 75//75
f 131//131 72//72 138//138
f 139//139 70//70 73//73
f 140//140 72//72 141//141
f 142//142 70//70 103//103
f 83//83 72//72 85//85
f 138//138 72//72 143//143
f 127//127 72//72 114//114
f 10//10 72//72 12//12
f 50//50 72//72 52//52
f 93//93 72//72 91//91
f 102//102 70//70 90//90
f 64//64 72//72 66//66
f 89//89 72//72 100//100
f 119//119 70//70 139//139
f 82//82 72//72 83//83
f 66//66 72//72 68//68
f 65//65 70//70 63//63
f 129//129 119//119 128//128
f 128//128 119//119 139//139
f 128//128 139//139 117//117
f 117//117 139//139 73//73
f 117//117 73//73 116//116
f 116//116 73//73 74//74
f 116//116 74//74 115//115
f 115//115 74//74 111//111
f 115//115 111//111 144//144
f 144//144 111//111 142//142
f 112//112 145//145 146//146
f 112//112 146//146 104//104
f 104//104 146//146 147//147
f 104//104 147//147 103//103
f 103//103 147//147 144//144
f 103//103 144//144 142//142
f 132//132 105//105 148//148
f 148//148 105//105 106//106
f 148//148 106//106 135//135
f 135//135 106//106 149//149
f 135//135 149//149 134//134
f 134//134 149//149 150//150
f 134//134 150//150 113//113
f 113//113 150//150 151//151
f 113//113 151//151 112//112
f 112//112 151//151 145//145
f 67//67 68//68 137//137
f 67//67 137//137 152//152
f 152//152 137//137 140//140
f 152//152 140//140 153//153
f 153//153 140//140 141//141
f 153//153 141//141 110//110
f 110//110 141//141 122//122
f 110//110 122//122 109//109
f 109//109 122//122 123//123
f 109//109 123//123 120//120
f 120//120 123//123 127//127
f 120//120 127//127 136//136
f 136//136 127//127 114//114
f 136//136 114//114 133//133
f 133//133 114//114 105//105
f 133//133 105//105 132//132
f 119//119 129//129 118//118
f 118//118 129//129 154//154
f 118//118 154//154 108//108
f 154//154 155//155 108//108
f 108//108 155//155 156//156
f 108//108 156//156 107//107
f 107//107 156//156 130//130
f 107//107 130//130 126//126
f 126//126 130//130 131//131
f 126//126 131//131 157//157
f 157//157 131//131 138//138
f 157//157 138//138 125//125
f 125//125 138//138 143//143
f 125//125 143//143 124//124
f 124//124 143//143 158//158
f 124//124 158//158 121//121
f 121//121 158//158 2//2
f 121//121 2//2 1//1
f 31//31 72//72 29//29
f 144//144 72//72 115//115
f 61//61 70//70 59//59
f 154//154 72//72 155//155
f 129//129 72//72 154//154
f 26//26 70//70 28//28
f 23//23 72//72 21//21
f 145//145 72//72 146//146
f 22//22 70//70 24//24
f 58//58 72//72 60//60
f 29//29 72//72 27//27
f 48//48 72//72 77//77
f 150//150 72//72 151//151
f 57//57 70//70 55//55
f 143//143 72//72 158//158
f 121//121 70//70 124//124
f 51//51 70//70 49//49
f 17//17 70//70 15//15
f 106//106 72//72 149//149
f 157//157 70//70 126//126
f 20//20 72//72 99//99
f 78//78 70//70 47//47
f 135//135 70//70 148//148
f 63//63 70//70 61//61
f 30//30 70//70 32//32
f 148//148 70//70 132//132
f 90//90 70//70 92//92
f 12//12 72//72 14//14
f 67//67 70//70 65//65
f 149//149 72//72 150//150
f 152//152 70//70 67//67
f 104//104 70//70 112//112
f 59//59 70//70 57//57
f 155//155 72//72 156//156
f 95//95 72//72 93//93
f 53//53 70//70 51//51
f 97//97 72//72 96//96
f 15//15 70//70 13//13
f 33//33 72//72 35//35
f 101//101 70//70 102//102
f 98//98 70//70 19//19
f 156//156 72//72 130//130
f 141//141 72//72 122//122
f 111//111 70//70 142//142
f 21//21 72//72 33//33
f 113//113 70//70 134//134
f 6//6 72//72 8//8
f 77//77 72//72 79//79
f 39//39 70//70 38//38
f 153//153 70//70 152//152
f 110//110 70//70 153//153
f 147//147 72//72 144//144
f 7//7 70//70 5//5
f 151//151 72//72 145//145
f 46//46 72//72 48//48
f 146//146 72//72 147//147
f 13//13 70//70 11//11
f 92//92 70//70 94//94
f 35//35 72//72 37//37
f 158//158 72//72 2//2
f 14//14 72//72 16//16
f 55//55 70//70 53//53
f 71//71 70//70 80//80
f 84//84 70//70 69//69
f 25//25 72//72 23//23
f 137//137 72//72 140//140
f 4//4 72//72 6//6
f 125//125 70//70 157//157
f 108//108 70//70 118//118
f 37//37 72//72 40//40
f 54//54 72//72 56//56
f 56//56 72//72 58//58
f 159//159 160//160 161//161
f 161//161 162//162 159//159
f 163//163 164//164 162//162
f 162//162 161//161 163//163
f 165//165 166//166 160//160
f 160//160 159//159 165//165
f 166//166 163//163 161//161
f 161//161 160//160 166//166
f 164//164 165//165 159//159
f 159//159 162//162 164//164
f 165//165 164//164 163//163
f 163//163 166//166 165//165
# 324 faces, 0 coords texture

# End of File
